<?xml version="1.0" encoding="utf-8"?>
<!-- Generator: Adobe Illustrator 27.5.0, SVG Export Plug-In . SVG Version: 6.00 Build 0)  -->
<svg version="1.1" xmlns="http://www.w3.org/2000/svg" xmlns:xlink="http://www.w3.org/1999/xlink" x="0px" y="0px"
	 viewBox="0 0 750 500" style="enable-background:new 0 0 750 500;" xml:space="preserve">
<g id="BACKGROUND">
	<rect style="fill:#EDF0FF;" width="750" height="500"/>
</g>
<g id="OBJECTS">
	<g>
		<defs>
			<rect id="SVGID_1_" width="750" height="500"/>
		</defs>
		<clipPath id="SVGID_00000121245936453815992840000012791017316302255522_">
			<use xlink:href="#SVGID_1_"  style="overflow:visible;"/>
		</clipPath>
		
			<rect x="540.569" y="-119.634" transform="matrix(0.7071 -0.7071 0.7071 0.7071 58.3775 466.4932)" style="clip-path:url(#SVGID_00000121245936453815992840000012791017316302255522_);fill:#FFFFFF;" width="103.455" height="564.825"/>
		<path style="clip-path:url(#SVGID_00000121245936453815992840000012791017316302255522_);fill:#FFFFFF;" d="M128.485,545.695
			l-16.918,16.917c-32.073,32.073-84.073,32.073-116.146,0l-112.963-112.963l74.99-74.991L128.485,545.695z"/>
		<path style="clip-path:url(#SVGID_00000121245936453815992840000012791017316302255522_);fill:#FFFFFF;" d="M-147.972-1.068
			l73.153-73.153l447.975,447.975l-8.187,8.187c-35.88,35.88-94.053,35.88-129.933,0L-147.972-1.068z"/>
		<g style="clip-path:url(#SVGID_00000121245936453815992840000012791017316302255522_);">
			<path style="fill:none;stroke:#1B1717;stroke-linecap:round;stroke-miterlimit:10;" d="M55.446,243.337
				c8.157,8.157,2.5,13.814,10.658,21.971c8.158,8.158,13.815,2.501,21.973,10.659c8.158,8.158,2.501,13.815,10.66,21.974
				c8.159,8.159,13.816,2.503,21.976,10.662c8.157,8.157,2.5,13.814,10.657,21.971c8.16,8.16,13.817,2.503,21.977,10.663
				c8.16,8.16,2.503,13.817,10.664,21.978c8.161,8.161,13.818,2.505,21.98,10.666c8.161,8.161,2.505,13.818,10.666,21.98"/>
		</g>
		
			<line style="clip-path:url(#SVGID_00000121245936453815992840000012791017316302255522_);fill:none;stroke:#1B1717;stroke-linecap:round;stroke-miterlimit:10;" x1="416.887" y1="381.274" x2="595.27" y2="559.657"/>
		<g style="clip-path:url(#SVGID_00000121245936453815992840000012791017316302255522_);">
			<path style="fill:none;stroke:#1B1717;stroke-linecap:round;stroke-miterlimit:10;" d="M263.477-72.36
				c8.832,8.832,3.175,14.489,12.007,23.32c8.833,8.833,14.489,3.176,23.322,12.008c8.833,8.833,3.176,14.49,12.009,23.322
				c8.834,8.834,14.491,3.177,23.325,12.011c8.831,8.831,3.175,14.488,12.006,23.32c8.835,8.835,14.491,3.178,23.326,12.012
				c8.835,8.835,3.178,14.492,12.013,23.327c8.836,8.836,14.493,3.179,23.329,12.015c8.836,8.836,3.179,14.493,12.016,23.329"/>
		</g>
		<g style="clip-path:url(#SVGID_00000121245936453815992840000012791017316302255522_);">
			<path style="fill:none;stroke:#1B1717;stroke-linecap:round;stroke-miterlimit:10;" d="M575.864,373.908
				c8.832,8.832,3.175,14.489,12.007,23.32c8.832,8.832,14.489,3.176,23.322,12.008c8.833,8.833,3.176,14.49,12.009,23.323
				c8.834,8.834,14.491,3.177,23.325,12.011c8.831,8.832,3.175,14.488,12.006,23.32c8.834,8.835,14.491,3.178,23.326,12.012
				c8.835,8.835,3.178,14.492,12.013,23.327c8.836,8.836,14.493,3.179,23.329,12.015c8.836,8.836,3.179,14.493,12.016,23.329"/>
		</g>
		
			<line style="clip-path:url(#SVGID_00000121245936453815992840000012791017316302255522_);fill:none;stroke:#1B1717;stroke-linecap:round;stroke-miterlimit:10;" x1="709.731" y1="184.333" x2="831.558" y2="306.161"/>
		<g style="clip-path:url(#SVGID_00000121245936453815992840000012791017316302255522_);">
			
				<line style="fill:none;stroke:#1B1717;stroke-linecap:round;stroke-miterlimit:10;" x1="646.487" y1="323.084" x2="657.169" y2="333.766"/>
			
				<line style="fill:none;stroke:#1B1717;stroke-linecap:round;stroke-miterlimit:10;" x1="627.243" y1="303.841" x2="638.296" y2="314.894"/>
		</g>
		<g style="clip-path:url(#SVGID_00000121245936453815992840000012791017316302255522_);">
			
				<line style="fill:none;stroke:#1B1717;stroke-linecap:round;stroke-miterlimit:10;" x1="263.061" y1="182.467" x2="273.743" y2="193.149"/>
			
				<line style="fill:none;stroke:#1B1717;stroke-linecap:round;stroke-miterlimit:10;" x1="243.817" y1="163.224" x2="254.87" y2="174.277"/>
		</g>
		
			<line style="clip-path:url(#SVGID_00000121245936453815992840000012791017316302255522_);fill:none;stroke:#1B1717;stroke-linecap:round;stroke-miterlimit:10;" x1="180.186" y1="99.055" x2="231.025" y2="149.895"/>
		
			<line style="clip-path:url(#SVGID_00000121245936453815992840000012791017316302255522_);fill:none;stroke:#1B1717;stroke-linecap:round;stroke-miterlimit:10;" x1="5.847" y1="-20.289" x2="87.867" y2="61.73"/>
		
			<line style="clip-path:url(#SVGID_00000121245936453815992840000012791017316302255522_);fill:none;stroke:#1B1717;stroke-linecap:round;stroke-miterlimit:10;" x1="637.522" y1="461.957" x2="719.542" y2="543.976"/>
		<path style="clip-path:url(#SVGID_00000121245936453815992840000012791017316302255522_);fill:#FFFFFF;" d="M704.655,564.073
			l-18.246,18.246l-18.246-18.246c-7.885-7.885-7.885-20.669,0-28.553l18.246-18.246l18.246,18.246
			C712.54,543.405,712.54,556.188,704.655,564.073z"/>
		<path style="clip-path:url(#SVGID_00000121245936453815992840000012791017316302255522_);fill:#FFFFFF;" d="M513.94,717.69
			L390.821,840.809L267.702,717.69c-53.205-53.205-53.205-139.468,0-192.673l123.119-123.119L513.94,525.016
			C567.146,578.221,567.146,664.484,513.94,717.69z"/>
		<path style="clip-path:url(#SVGID_00000121245936453815992840000012791017316302255522_);fill:#FFFFFF;" d="M725.721-50.218
			L602.602,72.901L479.483-50.218c-53.205-53.205-53.205-139.468,0-192.673l123.119-123.119l123.119,123.119
			C778.927-189.686,778.927-103.423,725.721-50.218z"/>
		<g style="clip-path:url(#SVGID_00000121245936453815992840000012791017316302255522_);">
			<path style="fill:#1B1717;" d="M618.622,87.26c-0.679-0.679-0.679-1.781,0-2.46c0.679-0.679,1.781-0.679,2.46,0
				c0.679,0.679,0.679,1.78,0,2.46C620.403,87.939,619.302,87.939,618.622,87.26z"/>
			<path style="fill:#1B1717;" d="M632.599,73.284c-0.679-0.679-0.679-1.781,0-2.46c0.679-0.679,1.781-0.679,2.46,0
				c0.679,0.679,0.679,1.781,0,2.46C634.379,73.963,633.278,73.963,632.599,73.284z"/>
			<path style="fill:#1B1717;" d="M646.575,59.307c-0.679-0.679-0.679-1.78,0-2.46c0.679-0.679,1.78-0.679,2.46,0
				c0.679,0.679,0.679,1.78,0,2.46C648.355,59.987,647.254,59.987,646.575,59.307z"/>
		</g>
		<g style="clip-path:url(#SVGID_00000121245936453815992840000012791017316302255522_);">
			<path style="fill:#1B1717;" d="M101.374,78.28c-0.679-0.679-0.679-1.78,0-2.46c0.679-0.679,1.78-0.679,2.46,0
				c0.679,0.679,0.679,1.78,0,2.46C103.154,78.96,102.053,78.96,101.374,78.28z"/>
			<path style="fill:#1B1717;" d="M115.35,64.304c-0.679-0.679-0.679-1.78,0-2.46c0.679-0.679,1.78-0.679,2.46,0
				c0.679,0.679,0.679,1.781,0,2.46C117.13,64.983,116.029,64.983,115.35,64.304z"/>
			<path style="fill:#1B1717;" d="M129.326,50.328c-0.679-0.679-0.679-1.78,0-2.46c0.679-0.679,1.781-0.679,2.46,0
				c0.679,0.679,0.679,1.78,0,2.46C131.107,51.007,130.005,51.007,129.326,50.328z"/>
		</g>
		<g style="clip-path:url(#SVGID_00000121245936453815992840000012791017316302255522_);">
			<path style="fill:#1B1717;" d="M681.578,418.31c-0.679-0.679-0.679-1.78,0-2.46c0.679-0.679,1.781-0.679,2.46,0
				c0.679,0.679,0.679,1.781,0,2.46C683.358,418.989,682.257,418.989,681.578,418.31z"/>
			<path style="fill:#1B1717;" d="M695.554,404.333c-0.679-0.679-0.679-1.781,0-2.46c0.679-0.679,1.781-0.679,2.46,0
				s0.679,1.781,0,2.46C697.334,405.013,696.233,405.013,695.554,404.333z"/>
			<path style="fill:#1B1717;" d="M709.53,390.357c-0.679-0.679-0.679-1.78,0-2.46c0.679-0.679,1.78-0.679,2.46,0
				c0.679,0.679,0.679,1.78,0,2.46C711.31,391.037,710.209,391.037,709.53,390.357z"/>
		</g>
		<g style="clip-path:url(#SVGID_00000121245936453815992840000012791017316302255522_);">
			<path style="fill:#1B1717;" d="M232.242,446.963c-0.489-0.489-0.489-1.282,0-1.771c0.489-0.489,1.282-0.489,1.771,0
				c0.489,0.489,0.489,1.282,0,1.771C233.523,447.452,232.731,447.452,232.242,446.963z"/>
			<path style="fill:#1B1717;" d="M242.303,436.902c-0.489-0.489-0.489-1.282,0-1.771c0.489-0.489,1.282-0.489,1.771,0
				c0.489,0.489,0.489,1.282,0,1.771C243.585,437.391,242.792,437.391,242.303,436.902z"/>
			<path style="fill:#1B1717;" d="M252.364,426.841c-0.489-0.489-0.489-1.282,0-1.771c0.489-0.489,1.282-0.489,1.771,0
				c0.489,0.489,0.489,1.282,0,1.771C253.646,427.33,252.853,427.33,252.364,426.841z"/>
		</g>
		<g style="clip-path:url(#SVGID_00000121245936453815992840000012791017316302255522_);">
			<path style="fill:#1B1717;" d="M19.566,280.734c-0.489-0.489-0.489-1.282,0-1.771c0.489-0.489,1.282-0.489,1.771,0
				c0.489,0.489,0.489,1.282,0,1.771C20.848,281.223,20.055,281.223,19.566,280.734z"/>
			<path style="fill:#1B1717;" d="M29.627,270.672c-0.489-0.489-0.489-1.282,0-1.771c0.489-0.489,1.282-0.489,1.771,0
				c0.489,0.489,0.489,1.282,0,1.771C30.909,271.161,30.116,271.161,29.627,270.672z"/>
			<path style="fill:#1B1717;" d="M39.688,260.611c-0.489-0.489-0.489-1.282,0-1.771c0.489-0.489,1.282-0.489,1.771,0
				c0.489,0.489,0.489,1.282,0,1.771C40.97,261.1,40.177,261.1,39.688,260.611z"/>
		</g>
		<g style="clip-path:url(#SVGID_00000121245936453815992840000012791017316302255522_);">
			<path style="fill:#1B1717;" d="M219.268,612.268c-1.181-1.181-1.181-3.096,0-4.277c1.181-1.181,3.096-1.181,4.277,0
				c1.181,1.181,1.181,3.096,0,4.277C222.364,613.449,220.449,613.449,219.268,612.268z"/>
			<path style="fill:#1B1717;" d="M243.569,587.967c-1.181-1.181-1.181-3.096,0-4.277c1.181-1.181,3.096-1.181,4.277,0
				c1.181,1.181,1.181,3.096,0,4.277C246.664,589.148,244.75,589.148,243.569,587.967z"/>
			<path style="fill:#1B1717;" d="M267.869,563.666c-1.181-1.181-1.181-3.096,0-4.277c1.181-1.181,3.096-1.181,4.277,0
				c1.181,1.181,1.181,3.096,0,4.277C270.965,564.847,269.05,564.847,267.869,563.666z"/>
		</g>
		<g style="clip-path:url(#SVGID_00000121245936453815992840000012791017316302255522_);">
			<circle style="fill:#FFFBD4;" cx="530.476" cy="430.572" r="10.623"/>
			<circle style="fill:#FFFFFF;" cx="530.396" cy="460.685" r="10.623"/>
			<path style="fill:#614ABA;" d="M508.039,453.01c-4.148-4.148-4.148-10.874,0-15.023s10.875-4.148,15.023,0
				c4.148,4.148,4.148,10.875,0,15.023C518.914,457.158,512.188,457.158,508.039,453.01z"/>
		</g>
		<g style="clip-path:url(#SVGID_00000121245936453815992840000012791017316302255522_);">
			<circle style="fill:#FFFBD4;" cx="670.072" cy="72.504" r="10.623"/>
			<circle style="fill:#FFFFFF;" cx="670.152" cy="42.392" r="10.623"/>
			<circle style="fill:#614ABA;" cx="684.998" cy="57.578" r="10.623"/>
		</g>
		<g style="clip-path:url(#SVGID_00000121245936453815992840000012791017316302255522_);">
			<path style="fill:#FFFBD4;" d="M133.88,80.836c-4.148-4.148-4.148-10.874,0-15.023c4.148-4.149,10.874-4.149,15.023,0
				s4.148,10.874,0,15.023C144.755,84.985,138.029,84.985,133.88,80.836z"/>
			<circle style="fill:#FFFFFF;" cx="141.312" cy="103.437" r="10.623"/>
			<circle style="fill:#614ABA;" cx="126.466" cy="88.251" r="10.623"/>
		</g>
		<g style="clip-path:url(#SVGID_00000121245936453815992840000012791017316302255522_);">
			<circle style="fill:#FFFBD4;" cx="572.353" cy="267.36" r="18.843"/>
			<circle style="fill:#614ABA;" cx="545.877" cy="293.836" r="18.843"/>
			<circle style="fill:#FFFFFF;" cx="545.558" cy="240.565" r="18.843"/>
		</g>
		<g style="clip-path:url(#SVGID_00000121245936453815992840000012791017316302255522_);">
			<circle style="fill:#FFFBD4;" cx="428.395" cy="-25.832" r="18.843"/>
			<circle style="fill:#614ABA;" cx="401.919" cy="0.644" r="18.843"/>
			<circle style="fill:#FFFFFF;" cx="401.6" cy="-52.627" r="18.843"/>
		</g>
		<g style="clip-path:url(#SVGID_00000121245936453815992840000012791017316302255522_);">
			<circle style="fill:#FFFBD4;" cx="130.076" cy="440.505" r="18.843"/>
			<circle style="fill:#614ABA;" cx="103.6" cy="466.981" r="18.843"/>
			<path style="fill:#FFFFFF;" d="M89.957,427.034c-7.359-7.359-7.359-19.289,0-26.648c7.359-7.359,19.289-7.359,26.648,0
				c7.359,7.359,7.359,19.289,0,26.648C109.246,434.393,97.315,434.393,89.957,427.034z"/>
		</g>
		<g style="clip-path:url(#SVGID_00000121245936453815992840000012791017316302255522_);">
			<circle style="fill:#FFFFFF;" cx="686.352" cy="96.522" r="1.941"/>
			<path style="fill:#FFFFFF;" d="M696.642,86.231c0.758,0.758,0.758,1.987,0,2.745c-0.758,0.758-1.987,0.758-2.745,0
				c-0.758-0.758-0.758-1.987,0-2.745C694.655,85.473,695.884,85.473,696.642,86.231z"/>
			<circle style="fill:#FFFFFF;" cx="704.188" cy="78.686" r="1.941"/>
			<circle style="fill:#FFFFFF;" cx="713.106" cy="69.768" r="1.941"/>
			<circle style="fill:#FFFFFF;" cx="722.024" cy="60.85" r="1.941"/>
			<path style="fill:#FFFFFF;" d="M732.314,50.56c0.758,0.758,0.758,1.987,0,2.745c-0.758,0.758-1.987,0.758-2.745,0
				c-0.758-0.758-0.758-1.987,0-2.745C730.327,49.801,731.556,49.801,732.314,50.56z"/>
			<circle style="fill:#FFFFFF;" cx="739.86" cy="43.014" r="1.941"/>
			<circle style="fill:#FFFFFF;" cx="748.778" cy="34.096" r="1.941"/>
			<circle style="fill:#FFFFFF;" cx="757.696" cy="25.178" r="1.941"/>
			<circle style="fill:#FFFFFF;" cx="694.738" cy="104.908" r="1.941"/>
			<circle style="fill:#FFFFFF;" cx="703.656" cy="95.99" r="1.941"/>
			<circle style="fill:#FFFFFF;" cx="712.574" cy="87.072" r="1.941"/>
			<circle style="fill:#FFFFFF;" cx="721.492" cy="78.154" r="1.941"/>
			<circle style="fill:#FFFFFF;" cx="730.41" cy="69.236" r="1.941"/>
			<circle style="fill:#FFFFFF;" cx="739.328" cy="60.318" r="1.941"/>
			<circle style="fill:#FFFFFF;" cx="748.246" cy="51.4" r="1.941"/>
			<path style="fill:#FFFFFF;" d="M758.536,41.11c0.758,0.758,0.758,1.987,0,2.745s-1.987,0.758-2.745,0
				c-0.758-0.758-0.758-1.987,0-2.745C756.549,40.352,757.778,40.352,758.536,41.11z"/>
			<circle style="fill:#FFFFFF;" cx="766.082" cy="33.564" r="1.941"/>
			<circle style="fill:#FFFFFF;" cx="703.124" cy="113.294" r="1.941"/>
			<circle style="fill:#FFFFFF;" cx="712.042" cy="104.376" r="1.941"/>
			<circle style="fill:#FFFFFF;" cx="720.96" cy="95.458" r="1.941"/>
			<circle style="fill:#FFFFFF;" cx="729.878" cy="86.54" r="1.941"/>
			<circle style="fill:#FFFFFF;" cx="738.796" cy="77.622" r="1.941"/>
			<circle style="fill:#FFFFFF;" cx="747.714" cy="68.704" r="1.941"/>
			<path style="fill:#FFFFFF;" d="M758.004,58.414c0.758,0.758,0.758,1.987,0,2.745c-0.758,0.758-1.987,0.758-2.745,0
				c-0.758-0.758-0.758-1.987,0-2.745C756.017,57.655,757.246,57.655,758.004,58.414z"/>
			<circle style="fill:#FFFFFF;" cx="765.55" cy="50.868" r="1.941"/>
			<circle style="fill:#FFFFFF;" cx="774.468" cy="41.95" r="1.941"/>
			<path style="fill:#FFFFFF;" d="M712.882,120.307c0.758,0.758,0.758,1.987,0,2.745c-0.758,0.758-1.987,0.758-2.745,0
				c-0.758-0.758-0.758-1.987,0-2.745C710.895,119.549,712.124,119.549,712.882,120.307z"/>
			<circle style="fill:#FFFFFF;" cx="720.428" cy="112.762" r="1.941"/>
			<path style="fill:#FFFFFF;" d="M730.718,102.471c0.758,0.758,0.758,1.987,0,2.745c-0.758,0.758-1.987,0.758-2.745,0
				c-0.758-0.758-0.758-1.987,0-2.745C728.731,101.713,729.96,101.713,730.718,102.471z"/>
			<circle style="fill:#FFFFFF;" cx="738.264" cy="94.926" r="1.941"/>
			<circle style="fill:#FFFFFF;" cx="747.182" cy="86.008" r="1.941"/>
			<circle style="fill:#FFFFFF;" cx="756.1" cy="77.09" r="1.941"/>
			<path style="fill:#FFFFFF;" d="M766.39,66.799c0.758,0.758,0.758,1.987,0,2.745c-0.758,0.758-1.987,0.758-2.745,0
				c-0.758-0.758-0.758-1.987,0-2.745C764.403,66.041,765.632,66.041,766.39,66.799z"/>
			<circle style="fill:#FFFFFF;" cx="773.935" cy="59.254" r="1.941"/>
			<circle style="fill:#FFFFFF;" cx="782.853" cy="50.336" r="1.941"/>
			<circle style="fill:#FFFFFF;" cx="719.896" cy="130.066" r="1.941"/>
			<circle style="fill:#FFFFFF;" cx="728.814" cy="121.148" r="1.941"/>
			<circle style="fill:#FFFFFF;" cx="737.732" cy="112.23" r="1.941"/>
			<circle style="fill:#FFFFFF;" cx="746.65" cy="103.312" r="1.941"/>
			<circle style="fill:#FFFFFF;" cx="755.568" cy="94.394" r="1.941"/>
			<circle style="fill:#FFFFFF;" cx="764.485" cy="85.476" r="1.941"/>
			<circle style="fill:#FFFFFF;" cx="773.403" cy="76.558" r="1.941"/>
			<circle style="fill:#FFFFFF;" cx="782.321" cy="67.64" r="1.941"/>
			<circle style="fill:#FFFFFF;" cx="791.239" cy="58.722" r="1.941"/>
			<circle style="fill:#FFFFFF;" cx="728.281" cy="138.452" r="1.941"/>
			<path style="fill:#FFFFFF;" d="M738.572,128.161c0.758,0.758,0.758,1.987,0,2.745c-0.758,0.758-1.987,0.758-2.745,0
				c-0.758-0.758-0.758-1.987,0-2.745C736.585,127.403,737.814,127.403,738.572,128.161z"/>
			<circle style="fill:#FFFFFF;" cx="746.117" cy="120.616" r="1.941"/>
			<circle style="fill:#FFFFFF;" cx="755.035" cy="111.698" r="1.941"/>
			<circle style="fill:#FFFFFF;" cx="763.953" cy="102.78" r="1.941"/>
			<path style="fill:#FFFFFF;" d="M774.244,92.489c0.758,0.758,0.758,1.987,0,2.745c-0.758,0.758-1.987,0.758-2.745,0
				c-0.758-0.758-0.758-1.987,0-2.745C772.257,91.731,773.486,91.731,774.244,92.489z"/>
			<circle style="fill:#FFFFFF;" cx="781.789" cy="84.944" r="1.941"/>
			<circle style="fill:#FFFFFF;" cx="790.707" cy="76.026" r="1.941"/>
			<circle style="fill:#FFFFFF;" cx="799.625" cy="67.108" r="1.941"/>
			<circle style="fill:#FFFFFF;" cx="736.667" cy="146.838" r="1.941"/>
			<circle style="fill:#FFFFFF;" cx="745.585" cy="137.92" r="1.941"/>
			<circle style="fill:#FFFFFF;" cx="754.503" cy="129.002" r="1.941"/>
			<circle style="fill:#FFFFFF;" cx="763.421" cy="120.084" r="1.941"/>
			<circle style="fill:#FFFFFF;" cx="772.339" cy="111.166" r="1.941"/>
			<circle style="fill:#FFFFFF;" cx="781.257" cy="102.248" r="1.941"/>
			<circle style="fill:#FFFFFF;" cx="790.175" cy="93.33" r="1.941"/>
			<path style="fill:#FFFFFF;" d="M800.466,83.039c0.758,0.758,0.758,1.987,0,2.745s-1.987,0.758-2.745,0
				c-0.758-0.758-0.758-1.987,0-2.745C798.479,82.281,799.708,82.281,800.466,83.039z"/>
			<circle style="fill:#FFFFFF;" cx="808.011" cy="75.494" r="1.941"/>
			<circle style="fill:#FFFFFF;" cx="745.053" cy="155.224" r="1.941"/>
			<circle style="fill:#FFFFFF;" cx="753.971" cy="146.306" r="1.941"/>
			<circle style="fill:#FFFFFF;" cx="762.889" cy="137.388" r="1.941"/>
			<circle style="fill:#FFFFFF;" cx="771.807" cy="128.47" r="1.941"/>
			<circle style="fill:#FFFFFF;" cx="780.725" cy="119.552" r="1.941"/>
			<circle style="fill:#FFFFFF;" cx="789.643" cy="110.634" r="1.941"/>
			<path style="fill:#FFFFFF;" d="M799.934,100.343c0.758,0.758,0.758,1.987,0,2.745c-0.758,0.758-1.987,0.758-2.745,0
				c-0.758-0.758-0.758-1.987,0-2.745C797.947,99.585,799.176,99.585,799.934,100.343z"/>
			<circle style="fill:#FFFFFF;" cx="807.479" cy="92.798" r="1.941"/>
			<circle style="fill:#FFFFFF;" cx="816.397" cy="83.88" r="1.941"/>
			<path style="fill:#FFFFFF;" d="M754.812,162.237c0.758,0.758,0.758,1.987,0,2.745c-0.758,0.758-1.987,0.758-2.745,0
				c-0.758-0.758-0.758-1.987,0-2.745C752.825,161.479,754.054,161.479,754.812,162.237z"/>
			<circle style="fill:#FFFFFF;" cx="762.357" cy="154.692" r="1.941"/>
			<path style="fill:#FFFFFF;" d="M772.648,144.401c0.758,0.758,0.758,1.987,0,2.745c-0.758,0.758-1.987,0.758-2.745,0
				c-0.758-0.758-0.758-1.987,0-2.745C770.661,143.643,771.89,143.643,772.648,144.401z"/>
			<circle style="fill:#FFFFFF;" cx="780.193" cy="136.856" r="1.941"/>
			<circle style="fill:#FFFFFF;" cx="789.111" cy="127.938" r="1.941"/>
			<circle style="fill:#FFFFFF;" cx="798.029" cy="119.02" r="1.941"/>
			<path style="fill:#FFFFFF;" d="M808.32,108.729c0.758,0.758,0.758,1.987,0,2.745c-0.758,0.758-1.987,0.758-2.745,0
				c-0.758-0.758-0.758-1.987,0-2.745C806.333,107.971,807.562,107.971,808.32,108.729z"/>
			<circle style="fill:#FFFFFF;" cx="815.865" cy="101.184" r="1.941"/>
			<circle style="fill:#FFFFFF;" cx="824.783" cy="92.266" r="1.941"/>
			<circle style="fill:#FFFFFF;" cx="761.825" cy="171.996" r="1.941"/>
			<circle style="fill:#FFFFFF;" cx="770.743" cy="163.078" r="1.941"/>
			<circle style="fill:#FFFFFF;" cx="779.661" cy="154.16" r="1.941"/>
			<circle style="fill:#FFFFFF;" cx="788.579" cy="145.242" r="1.941"/>
			<circle style="fill:#FFFFFF;" cx="797.497" cy="136.324" r="1.941"/>
			<circle style="fill:#FFFFFF;" cx="806.415" cy="127.406" r="1.941"/>
			<circle style="fill:#FFFFFF;" cx="815.333" cy="118.488" r="1.941"/>
			<circle style="fill:#FFFFFF;" cx="824.251" cy="109.57" r="1.941"/>
			<circle style="fill:#FFFFFF;" cx="833.169" cy="100.652" r="1.941"/>
		</g>
		<g style="clip-path:url(#SVGID_00000121245936453815992840000012791017316302255522_);">
			<path style="fill:#FFFFFF;" d="M-42.322,360.843c0.758,0.758,0.758,1.987,0,2.745c-0.758,0.758-1.987,0.758-2.745,0
				c-0.758-0.758-0.758-1.987,0-2.745C-44.31,360.085-43.081,360.085-42.322,360.843z"/>
			<circle style="fill:#FFFFFF;" cx="-34.777" cy="353.297" r="1.941"/>
			<circle style="fill:#FFFFFF;" cx="-25.859" cy="344.379" r="1.941"/>
			<path style="fill:#FFFFFF;" d="M-15.569,334.089c0.758,0.758,0.758,1.987,0,2.745c-0.758,0.758-1.987,0.758-2.745,0
				c-0.758-0.758-0.758-1.987,0-2.745C-17.556,333.331-16.327,333.331-15.569,334.089z"/>
			<circle style="fill:#FFFFFF;" cx="-8.023" cy="326.543" r="1.941"/>
			<circle style="fill:#FFFFFF;" cx="0.895" cy="317.625" r="1.941"/>
			<circle style="fill:#FFFFFF;" cx="9.813" cy="308.708" r="1.941"/>
			<circle style="fill:#FFFFFF;" cx="18.731" cy="299.79" r="1.941"/>
			<circle style="fill:#FFFFFF;" cx="27.649" cy="290.872" r="1.941"/>
			<circle style="fill:#FFFFFF;" cx="-35.309" cy="370.601" r="1.941"/>
			<circle style="fill:#FFFFFF;" cx="-26.391" cy="361.683" r="1.941"/>
			<circle style="fill:#FFFFFF;" cx="-17.473" cy="352.765" r="1.941"/>
			<circle style="fill:#FFFFFF;" cx="-8.555" cy="343.847" r="1.941"/>
			<circle style="fill:#FFFFFF;" cx="0.363" cy="334.929" r="1.941"/>
			<circle style="fill:#FFFFFF;" cx="9.281" cy="326.011" r="1.941"/>
			<circle style="fill:#FFFFFF;" cx="18.199" cy="317.093" r="1.941"/>
			<circle style="fill:#FFFFFF;" cx="27.117" cy="308.175" r="1.941"/>
			<circle style="fill:#FFFFFF;" cx="36.035" cy="299.258" r="1.941"/>
			<path style="fill:#FFFFFF;" d="M-25.551,377.615c0.758,0.758,0.758,1.987,0,2.745c-0.758,0.758-1.987,0.758-2.745,0
				c-0.758-0.758-0.758-1.987,0-2.745C-27.538,376.857-26.309,376.857-25.551,377.615z"/>
			<path style="fill:#FFFFFF;" d="M-16.633,368.697c0.758,0.758,0.758,1.987,0,2.745c-0.758,0.758-1.987,0.758-2.745,0
				c-0.758-0.758-0.758-1.987,0-2.745C-18.62,367.939-17.391,367.939-16.633,368.697z"/>
			<circle style="fill:#FFFFFF;" cx="-9.087" cy="361.151" r="1.941"/>
			<circle style="fill:#FFFFFF;" cx="-0.169" cy="352.233" r="1.941"/>
			<circle style="fill:#FFFFFF;" cx="8.749" cy="343.315" r="1.941"/>
			<path style="fill:#FFFFFF;" d="M19.039,333.025c0.758,0.758,0.758,1.987,0,2.745c-0.758,0.758-1.987,0.758-2.745,0
				c-0.758-0.758-0.758-1.987,0-2.745C17.052,332.267,18.281,332.267,19.039,333.025z"/>
			<circle style="fill:#FFFFFF;" cx="26.585" cy="325.479" r="1.941"/>
			<circle style="fill:#FFFFFF;" cx="35.503" cy="316.561" r="1.941"/>
			<circle style="fill:#FFFFFF;" cx="44.421" cy="307.643" r="1.941"/>
			<circle style="fill:#FFFFFF;" cx="-18.537" cy="387.373" r="1.941"/>
			<circle style="fill:#FFFFFF;" cx="-9.619" cy="378.455" r="1.941"/>
			<circle style="fill:#FFFFFF;" cx="-0.701" cy="369.537" r="1.941"/>
			<circle style="fill:#FFFFFF;" cx="8.217" cy="360.619" r="1.941"/>
			<path style="fill:#FFFFFF;" d="M18.507,350.329c0.758,0.758,0.758,1.987,0,2.745c-0.758,0.758-1.987,0.758-2.745,0
				c-0.758-0.758-0.758-1.987,0-2.745C16.52,349.57,17.749,349.57,18.507,350.329z"/>
			<circle style="fill:#FFFFFF;" cx="26.053" cy="342.783" r="1.941"/>
			<circle style="fill:#FFFFFF;" cx="34.971" cy="333.865" r="1.941"/>
			<circle style="fill:#FFFFFF;" cx="43.889" cy="324.947" r="1.941"/>
			<path style="fill:#FFFFFF;" d="M54.179,314.657c0.758,0.758,0.758,1.987,0,2.745c-0.758,0.758-1.987,0.758-2.745,0
				c-0.758-0.758-0.758-1.987,0-2.745C52.192,313.899,53.421,313.899,54.179,314.657z"/>
			<circle style="fill:#FFFFFF;" cx="-10.151" cy="395.759" r="1.941"/>
			<circle style="fill:#FFFFFF;" cx="-1.233" cy="386.841" r="1.941"/>
			<circle style="fill:#FFFFFF;" cx="7.685" cy="377.923" r="1.941"/>
			<circle style="fill:#FFFFFF;" cx="16.603" cy="369.005" r="1.941"/>
			<circle style="fill:#FFFFFF;" cx="25.521" cy="360.087" r="1.941"/>
			<path style="fill:#FFFFFF;" d="M35.811,349.797c0.758,0.758,0.758,1.987,0,2.745s-1.987,0.758-2.745,0
				c-0.758-0.758-0.758-1.987,0-2.745C33.824,349.039,35.053,349.039,35.811,349.797z"/>
			<path style="fill:#FFFFFF;" d="M44.729,340.879c0.758,0.758,0.758,1.987,0,2.745c-0.758,0.758-1.987,0.758-2.745,0
				c-0.758-0.758-0.758-1.987,0-2.745C42.742,340.121,43.971,340.121,44.729,340.879z"/>
			<path style="fill:#FFFFFF;" d="M53.647,331.961c0.758,0.758,0.758,1.987,0,2.745c-0.758,0.758-1.987,0.758-2.745,0
				c-0.758-0.758-0.758-1.987,0-2.745C51.66,331.203,52.889,331.203,53.647,331.961z"/>
			<path style="fill:#FFFFFF;" d="M62.565,323.043c0.758,0.758,0.758,1.987,0,2.745c-0.758,0.758-1.987,0.758-2.745,0
				c-0.758-0.758-0.758-1.987,0-2.745C60.578,322.284,61.807,322.284,62.565,323.043z"/>
			<path style="fill:#FFFFFF;" d="M-0.393,402.772c0.758,0.758,0.758,1.987,0,2.745c-0.758,0.758-1.987,0.758-2.745,0
				c-0.758-0.758-0.758-1.987,0-2.745C-2.38,402.014-1.151,402.014-0.393,402.772z"/>
			<circle style="fill:#FFFFFF;" cx="7.153" cy="395.227" r="1.941"/>
			<path style="fill:#FFFFFF;" d="M17.443,384.936c0.758,0.758,0.758,1.987,0,2.745c-0.758,0.758-1.987,0.758-2.745,0
				c-0.758-0.758-0.758-1.987,0-2.745C15.456,384.178,16.685,384.178,17.443,384.936z"/>
			<path style="fill:#FFFFFF;" d="M26.361,376.018c0.758,0.758,0.758,1.987,0,2.745c-0.758,0.758-1.987,0.758-2.745,0
				c-0.758-0.758-0.758-1.987,0-2.745C24.374,375.26,25.603,375.26,26.361,376.018z"/>
			<path style="fill:#FFFFFF;" d="M35.279,367.1c0.758,0.758,0.758,1.987,0,2.745c-0.758,0.758-1.987,0.758-2.745,0
				c-0.758-0.758-0.758-1.987,0-2.745C33.292,366.342,34.521,366.342,35.279,367.1z"/>
			<path style="fill:#FFFFFF;" d="M44.197,358.182c0.758,0.758,0.758,1.987,0,2.745c-0.758,0.758-1.987,0.758-2.745,0
				c-0.758-0.758-0.758-1.987,0-2.745C42.21,357.424,43.439,357.424,44.197,358.182z"/>
			<path style="fill:#FFFFFF;" d="M53.115,349.265c0.758,0.758,0.758,1.987,0,2.745c-0.758,0.758-1.987,0.758-2.745,0
				c-0.758-0.758-0.758-1.987,0-2.745C51.128,348.507,52.357,348.507,53.115,349.265z"/>
			<circle style="fill:#FFFFFF;" cx="60.66" cy="341.719" r="1.941"/>
			<circle style="fill:#FFFFFF;" cx="69.578" cy="332.801" r="1.941"/>
			<path style="fill:#FFFFFF;" d="M7.993,411.158c0.758,0.758,0.758,1.987,0,2.745c-0.758,0.758-1.987,0.758-2.745,0
				c-0.758-0.758-0.758-1.987,0-2.745C6.006,410.4,7.235,410.4,7.993,411.158z"/>
			<path style="fill:#FFFFFF;" d="M16.911,402.24c0.758,0.758,0.758,1.987,0,2.745c-0.758,0.758-1.987,0.758-2.745,0
				c-0.758-0.758-0.758-1.987,0-2.745C14.924,401.482,16.153,401.482,16.911,402.24z"/>
			<path style="fill:#FFFFFF;" d="M25.829,393.322c0.758,0.758,0.758,1.987,0,2.745c-0.758,0.758-1.987,0.758-2.745,0
				c-0.758-0.758-0.758-1.987,0-2.745C23.842,392.564,25.071,392.564,25.829,393.322z"/>
			<path style="fill:#FFFFFF;" d="M34.747,384.404c0.758,0.758,0.758,1.987,0,2.745c-0.758,0.758-1.987,0.758-2.745,0
				c-0.758-0.758-0.758-1.987,0-2.745C32.76,383.646,33.989,383.646,34.747,384.404z"/>
			<circle style="fill:#FFFFFF;" cx="42.292" cy="376.859" r="1.941"/>
			<circle style="fill:#FFFFFF;" cx="51.21" cy="367.941" r="1.941"/>
			<circle style="fill:#FFFFFF;" cx="60.128" cy="359.023" r="1.941"/>
			<circle style="fill:#FFFFFF;" cx="69.046" cy="350.105" r="1.941"/>
			<circle style="fill:#FFFFFF;" cx="77.964" cy="341.187" r="1.941"/>
			<path style="fill:#FFFFFF;" d="M16.379,419.544c0.758,0.758,0.758,1.987,0,2.745c-0.758,0.758-1.987,0.758-2.745,0
				c-0.758-0.758-0.758-1.987,0-2.745C14.392,418.786,15.621,418.786,16.379,419.544z"/>
			<path style="fill:#FFFFFF;" d="M25.297,410.626c0.758,0.758,0.758,1.987,0,2.745c-0.758,0.758-1.987,0.758-2.745,0
				c-0.758-0.758-0.758-1.987,0-2.745C23.31,409.868,24.539,409.868,25.297,410.626z"/>
			<circle style="fill:#FFFFFF;" cx="32.842" cy="403.081" r="1.941"/>
			<circle style="fill:#FFFFFF;" cx="41.76" cy="394.163" r="1.941"/>
			<circle style="fill:#FFFFFF;" cx="50.678" cy="385.245" r="1.941"/>
			<path style="fill:#FFFFFF;" d="M60.969,374.954c0.758,0.758,0.758,1.987,0,2.745c-0.758,0.758-1.987,0.758-2.745,0
				c-0.758-0.758-0.758-1.987,0-2.745C58.982,374.196,60.211,374.196,60.969,374.954z"/>
			<circle style="fill:#FFFFFF;" cx="68.514" cy="367.409" r="1.941"/>
			<circle style="fill:#FFFFFF;" cx="77.432" cy="358.491" r="1.941"/>
			<circle style="fill:#FFFFFF;" cx="86.35" cy="349.573" r="1.941"/>
			<circle style="fill:#FFFFFF;" cx="23.392" cy="429.303" r="1.941"/>
			<circle style="fill:#FFFFFF;" cx="32.31" cy="420.385" r="1.941"/>
			<circle style="fill:#FFFFFF;" cx="41.228" cy="411.467" r="1.941"/>
			<circle style="fill:#FFFFFF;" cx="50.146" cy="402.549" r="1.941"/>
			<path style="fill:#FFFFFF;" d="M60.437,392.258c0.758,0.758,0.758,1.987,0,2.745c-0.758,0.758-1.987,0.758-2.745,0
				c-0.758-0.758-0.758-1.987,0-2.745C58.45,391.5,59.679,391.5,60.437,392.258z"/>
			<circle style="fill:#FFFFFF;" cx="67.982" cy="384.713" r="1.941"/>
			<circle style="fill:#FFFFFF;" cx="76.9" cy="375.795" r="1.941"/>
			<circle style="fill:#FFFFFF;" cx="85.818" cy="366.877" r="1.941"/>
			<path style="fill:#FFFFFF;" d="M96.109,356.586c0.758,0.758,0.758,1.987,0,2.745c-0.758,0.758-1.987,0.758-2.745,0
				c-0.758-0.758-0.758-1.987,0-2.745C94.122,355.828,95.351,355.828,96.109,356.586z"/>
			<circle style="fill:#FFFFFF;" cx="31.778" cy="437.689" r="1.941"/>
			<circle style="fill:#FFFFFF;" cx="40.696" cy="428.771" r="1.941"/>
			<circle style="fill:#FFFFFF;" cx="49.614" cy="419.853" r="1.941"/>
			<circle style="fill:#FFFFFF;" cx="58.532" cy="410.935" r="1.941"/>
			<circle style="fill:#FFFFFF;" cx="67.45" cy="402.017" r="1.941"/>
			<circle style="fill:#FFFFFF;" cx="76.368" cy="393.099" r="1.941"/>
			<path style="fill:#FFFFFF;" d="M86.659,382.808c0.758,0.758,0.758,1.987,0,2.745c-0.758,0.758-1.987,0.758-2.745,0
				c-0.758-0.758-0.758-1.987,0-2.745C84.672,382.05,85.901,382.05,86.659,382.808z"/>
			<path style="fill:#FFFFFF;" d="M95.577,373.89c0.758,0.758,0.758,1.987,0,2.745c-0.758,0.758-1.987,0.758-2.745,0
				c-0.758-0.758-0.758-1.987,0-2.745C93.59,373.132,94.819,373.132,95.577,373.89z"/>
			<path style="fill:#FFFFFF;" d="M104.495,364.972c0.758,0.758,0.758,1.987,0,2.745c-0.758,0.758-1.987,0.758-2.745,0
				c-0.758-0.758-0.758-1.987,0-2.745C102.508,364.214,103.737,364.214,104.495,364.972z"/>
		</g>
		<g style="clip-path:url(#SVGID_00000121245936453815992840000012791017316302255522_);">
			<circle style="fill:#FFFFFF;" cx="695.307" cy="428.6" r="1.941"/>
			<path style="fill:#FFFFFF;" d="M705.598,418.309c0.758,0.758,0.758,1.987,0,2.745c-0.758,0.758-1.987,0.758-2.745,0
				c-0.758-0.758-0.758-1.987,0-2.745C703.61,417.551,704.84,417.551,705.598,418.309z"/>
			<circle style="fill:#FFFFFF;" cx="713.143" cy="410.764" r="1.941"/>
			<circle style="fill:#FFFFFF;" cx="722.061" cy="401.846" r="1.941"/>
			<circle style="fill:#FFFFFF;" cx="730.979" cy="392.928" r="1.941"/>
			<circle style="fill:#FFFFFF;" cx="739.897" cy="384.01" r="1.941"/>
			<circle style="fill:#FFFFFF;" cx="748.815" cy="375.092" r="1.941"/>
			<circle style="fill:#FFFFFF;" cx="757.733" cy="366.174" r="1.941"/>
			<circle style="fill:#FFFFFF;" cx="766.651" cy="357.256" r="1.941"/>
			<circle style="fill:#FFFFFF;" cx="703.693" cy="436.986" r="1.941"/>
			<circle style="fill:#FFFFFF;" cx="712.611" cy="428.068" r="1.941"/>
			<circle style="fill:#FFFFFF;" cx="721.529" cy="419.15" r="1.941"/>
			<circle style="fill:#FFFFFF;" cx="730.447" cy="410.232" r="1.941"/>
			<circle style="fill:#FFFFFF;" cx="739.365" cy="401.314" r="1.941"/>
			<path style="fill:#FFFFFF;" d="M749.655,391.023c0.758,0.758,0.758,1.987,0,2.745c-0.758,0.758-1.987,0.758-2.745,0
				c-0.758-0.758-0.758-1.987,0-2.745C747.668,390.265,748.897,390.265,749.655,391.023z"/>
			<circle style="fill:#FFFFFF;" cx="757.201" cy="383.478" r="1.941"/>
			<circle style="fill:#FFFFFF;" cx="766.119" cy="374.56" r="1.941"/>
			<circle style="fill:#FFFFFF;" cx="775.037" cy="365.642" r="1.941"/>
			<circle style="fill:#FFFFFF;" cx="712.079" cy="445.372" r="1.941"/>
			<circle style="fill:#FFFFFF;" cx="720.997" cy="436.454" r="1.941"/>
			<circle style="fill:#FFFFFF;" cx="729.915" cy="427.536" r="1.941"/>
			<circle style="fill:#FFFFFF;" cx="738.833" cy="418.618" r="1.941"/>
			<path style="fill:#FFFFFF;" d="M749.123,408.327c0.758,0.758,0.758,1.987,0,2.745c-0.758,0.758-1.987,0.758-2.745,0
				c-0.758-0.758-0.758-1.987,0-2.745C747.136,407.569,748.365,407.569,749.123,408.327z"/>
			<circle style="fill:#FFFFFF;" cx="756.669" cy="400.782" r="1.941"/>
			<circle style="fill:#FFFFFF;" cx="765.587" cy="391.864" r="1.941"/>
			<circle style="fill:#FFFFFF;" cx="774.505" cy="382.946" r="1.941"/>
			<circle style="fill:#FFFFFF;" cx="783.423" cy="374.028" r="1.941"/>
			<path style="fill:#FFFFFF;" d="M721.837,452.385c0.758,0.758,0.758,1.987,0,2.745c-0.758,0.758-1.987,0.758-2.745,0
				c-0.758-0.758-0.758-1.987,0-2.745C719.85,451.627,721.079,451.627,721.837,452.385z"/>
			<circle style="fill:#FFFFFF;" cx="729.383" cy="444.84" r="1.941"/>
			<path style="fill:#FFFFFF;" d="M739.673,434.549c0.758,0.758,0.758,1.987,0,2.745c-0.758,0.758-1.987,0.758-2.745,0
				c-0.758-0.758-0.758-1.987,0-2.745C737.686,433.791,738.915,433.791,739.673,434.549z"/>
			<circle style="fill:#FFFFFF;" cx="747.219" cy="427.004" r="1.941"/>
			<circle style="fill:#FFFFFF;" cx="756.137" cy="418.086" r="1.941"/>
			<circle style="fill:#FFFFFF;" cx="765.055" cy="409.168" r="1.941"/>
			<circle style="fill:#FFFFFF;" cx="773.973" cy="400.25" r="1.941"/>
			<circle style="fill:#FFFFFF;" cx="782.891" cy="391.332" r="1.941"/>
			<circle style="fill:#FFFFFF;" cx="791.809" cy="382.414" r="1.941"/>
			<circle style="fill:#FFFFFF;" cx="728.851" cy="462.144" r="1.941"/>
			<circle style="fill:#FFFFFF;" cx="737.769" cy="453.226" r="1.941"/>
			<circle style="fill:#FFFFFF;" cx="746.687" cy="444.308" r="1.941"/>
			<circle style="fill:#FFFFFF;" cx="755.605" cy="435.39" r="1.941"/>
			<circle style="fill:#FFFFFF;" cx="764.523" cy="426.472" r="1.941"/>
			<path style="fill:#FFFFFF;" d="M774.813,416.181c0.758,0.758,0.758,1.987,0,2.745c-0.758,0.758-1.987,0.758-2.745,0
				c-0.758-0.758-0.758-1.987,0-2.745C772.826,415.423,774.055,415.423,774.813,416.181z"/>
			<path style="fill:#FFFFFF;" d="M783.731,407.263c0.758,0.758,0.758,1.987,0,2.745c-0.758,0.758-1.987,0.758-2.745,0
				c-0.758-0.758-0.758-1.987,0-2.745C781.744,406.505,782.973,406.505,783.731,407.263z"/>
			<circle style="fill:#FFFFFF;" cx="791.277" cy="399.718" r="1.941"/>
			<circle style="fill:#FFFFFF;" cx="800.195" cy="390.8" r="1.941"/>
			<circle style="fill:#FFFFFF;" cx="737.237" cy="470.53" r="1.941"/>
			<path style="fill:#FFFFFF;" d="M747.527,460.239c0.758,0.758,0.758,1.987,0,2.745c-0.758,0.758-1.987,0.758-2.745,0
				c-0.758-0.758-0.758-1.987,0-2.745C745.54,459.481,746.769,459.481,747.527,460.239z"/>
			<circle style="fill:#FFFFFF;" cx="755.073" cy="452.694" r="1.941"/>
			<circle style="fill:#FFFFFF;" cx="763.991" cy="443.776" r="1.941"/>
			<circle style="fill:#FFFFFF;" cx="772.909" cy="434.858" r="1.941"/>
			<circle style="fill:#FFFFFF;" cx="781.827" cy="425.94" r="1.941"/>
			<circle style="fill:#FFFFFF;" cx="790.745" cy="417.022" r="1.941"/>
			<circle style="fill:#FFFFFF;" cx="799.663" cy="408.104" r="1.941"/>
			<circle style="fill:#FFFFFF;" cx="808.581" cy="399.186" r="1.941"/>
			<circle style="fill:#FFFFFF;" cx="745.623" cy="478.916" r="1.941"/>
			<circle style="fill:#FFFFFF;" cx="754.541" cy="469.998" r="1.941"/>
			<circle style="fill:#FFFFFF;" cx="763.459" cy="461.08" r="1.941"/>
			<circle style="fill:#FFFFFF;" cx="772.377" cy="452.162" r="1.941"/>
			<circle style="fill:#FFFFFF;" cx="781.294" cy="443.244" r="1.941"/>
			<path style="fill:#FFFFFF;" d="M791.585,432.953c0.758,0.758,0.758,1.987,0,2.745c-0.758,0.758-1.987,0.758-2.745,0
				c-0.758-0.758-0.758-1.987,0-2.745C789.598,432.195,790.827,432.195,791.585,432.953z"/>
			<circle style="fill:#FFFFFF;" cx="799.13" cy="425.408" r="1.941"/>
			<circle style="fill:#FFFFFF;" cx="808.048" cy="416.49" r="1.941"/>
			<circle style="fill:#FFFFFF;" cx="816.966" cy="407.572" r="1.941"/>
			<circle style="fill:#FFFFFF;" cx="754.008" cy="487.302" r="1.941"/>
			<circle style="fill:#FFFFFF;" cx="762.927" cy="478.384" r="1.941"/>
			<circle style="fill:#FFFFFF;" cx="771.844" cy="469.466" r="1.941"/>
			<circle style="fill:#FFFFFF;" cx="780.762" cy="460.548" r="1.941"/>
			<path style="fill:#FFFFFF;" d="M791.053,450.257c0.758,0.758,0.758,1.987,0,2.745c-0.758,0.758-1.987,0.758-2.745,0
				c-0.758-0.758-0.758-1.987,0-2.745C789.066,449.499,790.295,449.499,791.053,450.257z"/>
			<circle style="fill:#FFFFFF;" cx="798.598" cy="442.712" r="1.941"/>
			<circle style="fill:#FFFFFF;" cx="807.516" cy="433.794" r="1.941"/>
			<circle style="fill:#FFFFFF;" cx="816.434" cy="424.876" r="1.941"/>
			<circle style="fill:#FFFFFF;" cx="825.352" cy="415.958" r="1.941"/>
			<path style="fill:#FFFFFF;" d="M763.767,494.315c0.758,0.758,0.758,1.987,0,2.745c-0.758,0.758-1.987,0.758-2.745,0
				c-0.758-0.758-0.758-1.987,0-2.745C761.78,493.557,763.009,493.557,763.767,494.315z"/>
			<circle style="fill:#FFFFFF;" cx="771.312" cy="486.77" r="1.941"/>
			<path style="fill:#FFFFFF;" d="M781.603,476.479c0.758,0.758,0.758,1.987,0,2.745c-0.758,0.758-1.987,0.758-2.745,0
				c-0.758-0.758-0.758-1.987,0-2.745C779.616,475.721,780.845,475.721,781.603,476.479z"/>
			<circle style="fill:#FFFFFF;" cx="789.148" cy="468.934" r="1.941"/>
			<circle style="fill:#FFFFFF;" cx="798.066" cy="460.016" r="1.941"/>
			<circle style="fill:#FFFFFF;" cx="806.984" cy="451.098" r="1.941"/>
			<circle style="fill:#FFFFFF;" cx="815.902" cy="442.18" r="1.941"/>
			<circle style="fill:#FFFFFF;" cx="824.82" cy="433.262" r="1.941"/>
			<circle style="fill:#FFFFFF;" cx="833.738" cy="424.344" r="1.941"/>
			<circle style="fill:#FFFFFF;" cx="770.78" cy="504.074" r="1.941"/>
			<circle style="fill:#FFFFFF;" cx="779.698" cy="495.156" r="1.941"/>
			<circle style="fill:#FFFFFF;" cx="788.616" cy="486.238" r="1.941"/>
			<circle style="fill:#FFFFFF;" cx="797.534" cy="477.32" r="1.941"/>
			<circle style="fill:#FFFFFF;" cx="806.452" cy="468.402" r="1.941"/>
			<path style="fill:#FFFFFF;" d="M816.743,458.111c0.758,0.758,0.758,1.987,0,2.745c-0.758,0.758-1.987,0.758-2.745,0
				c-0.758-0.758-0.758-1.987,0-2.745C814.756,457.353,815.985,457.353,816.743,458.111z"/>
			<path style="fill:#FFFFFF;" d="M825.661,449.193c0.758,0.758,0.758,1.987,0,2.745c-0.758,0.758-1.987,0.758-2.745,0
				c-0.758-0.758-0.758-1.987,0-2.745C823.674,448.435,824.903,448.435,825.661,449.193z"/>
			<circle style="fill:#FFFFFF;" cx="833.206" cy="441.648" r="1.941"/>
			<circle style="fill:#FFFFFF;" cx="842.124" cy="432.73" r="1.941"/>
		</g>
		<g style="clip-path:url(#SVGID_00000121245936453815992840000012791017316302255522_);">
			
				<line style="fill:none;stroke:#FFFFFF;stroke-width:3;stroke-linecap:round;stroke-miterlimit:10;" x1="510.959" y1="-48.622" x2="520.661" y2="-38.92"/>
			
				<line style="fill:none;stroke:#FFFFFF;stroke-width:3;stroke-linecap:round;stroke-miterlimit:10;" x1="496.942" y1="-62.639" x2="506.644" y2="-52.937"/>
			
				<line style="fill:none;stroke:#FFFFFF;stroke-width:3;stroke-linecap:round;stroke-miterlimit:10;" x1="506.759" y1="-48.737" x2="497.057" y2="-39.035"/>
			
				<line style="fill:none;stroke:#FFFFFF;stroke-width:3;stroke-linecap:round;stroke-miterlimit:10;" x1="520.776" y1="-62.754" x2="511.074" y2="-53.052"/>
		</g>
		
			<line style="clip-path:url(#SVGID_00000121245936453815992840000012791017316302255522_);fill:none;stroke:#1B1717;stroke-linecap:round;stroke-miterlimit:10;" x1="454.607" y1="436.919" x2="511.215" y2="493.527"/>
		
			<line style="clip-path:url(#SVGID_00000121245936453815992840000012791017316302255522_);fill:none;stroke:#1B1717;stroke-linecap:round;stroke-miterlimit:10;" x1="119.073" y1="380.707" x2="267.819" y2="529.453"/>
		
			<ellipse transform="matrix(0.1966 -0.9805 0.9805 0.1966 194.4881 235.4536)" style="clip-path:url(#SVGID_00000121245936453815992840000012791017316302255522_);fill:#FFFBD4;" cx="240.917" cy="-0.95" rx="51.827" ry="51.827"/>
		<path style="clip-path:url(#SVGID_00000121245936453815992840000012791017316302255522_);fill:#DBE1FF;" d="M309.212,602.486
			L309.212,602.486c-3.195,3.195-8.375,3.195-11.57,0L158.033,462.877c-3.195-3.195-3.195-8.375,0-11.57h0
			c3.195-3.195,8.375-3.195,11.57,0l139.609,139.61C312.407,594.112,312.407,599.292,309.212,602.486z"/>
		<path style="clip-path:url(#SVGID_00000121245936453815992840000012791017316302255522_);fill:#DBE1FF;" d="M819.624,261.587
			L819.624,261.587c-3.195,3.195-8.375,3.195-11.57,0l-139.61-139.609c-3.195-3.195-3.195-8.375,0-11.57l0,0
			c3.195-3.195,8.375-3.195,11.57,0l139.609,139.609C822.819,253.212,822.819,258.392,819.624,261.587z"/>
		<path style="clip-path:url(#SVGID_00000121245936453815992840000012791017316302255522_);fill:#DBE1FF;" d="M251.32,139.584
			L251.32,139.584c-3.195,3.195-8.375,3.195-11.57,0L100.141-0.025c-3.195-3.195-3.195-8.375,0-11.57h0
			c3.195-3.195,8.375-3.195,11.57,0L251.32,128.014C254.515,131.209,254.515,136.389,251.32,139.584z"/>
		<path style="clip-path:url(#SVGID_00000121245936453815992840000012791017316302255522_);fill:#DBE1FF;" d="M52.162,235.828
			L52.162,235.828c-3.195,3.195-8.375,3.195-11.57,0L-99.017,96.218c-3.195-3.195-3.195-8.375,0-11.57l0,0
			c3.195-3.195,8.375-3.195,11.57,0L52.162,224.258C55.357,227.453,55.357,232.633,52.162,235.828z"/>
		<path style="clip-path:url(#SVGID_00000121245936453815992840000012791017316302255522_);fill:#DBE1FF;" d="M768.818,626.947
			L768.818,626.947c-3.195,3.195-8.375,3.195-11.57,0L617.639,487.337c-3.195-3.195-3.195-8.375,0-11.57l0,0
			c3.195-3.195,8.375-3.195,11.57,0l139.609,139.609C772.013,618.572,772.013,623.752,768.818,626.947z"/>
		
			<ellipse transform="matrix(0.1619 -0.9868 0.9868 0.1619 -345.1342 292.712)" style="clip-path:url(#SVGID_00000121245936453815992840000012791017316302255522_);fill:#FFFBD4;" cx="-0.25" cy="349.533" rx="33.214" ry="33.214"/>
	</g>
</g>
</svg>
